<?xml version="1.0" encoding="UTF-8" standalone="no"?>
<svg width="44px" height="51px" viewBox="0 0 44 51" version="1.1" xmlns="http://www.w3.org/2000/svg" xmlns:xlink="http://www.w3.org/1999/xlink">
    <!-- Generator: Sketch 41.2 (35397) - http://www.bohemiancoding.com/sketch -->
    <title>Group Copy</title>
    <desc>Created with Sketch.</desc>
    <defs></defs>
    <g id="Symbols" stroke="none" stroke-width="1" fill="none" fill-rule="evenodd">
        <g id="logo" transform="translate(0.002649, 0.000000)">
            <g id="Group-Copy">
                <g id="logo-white">
                    <path d="M23.5658445,1 C12.728063,1 3.94179813,9.69556798 3.94179813,20.4214755 C3.94179813,31.1473831 12.728063,39.8429511 23.5658445,39.8429511" id="Fill-2" fill="#DDDDDD"></path>
                    <path d="M18.577106,48.3291467 C1.52786553,45.1806093 0.236218873,38.0221019 0.0432819344,34.2292957 C-0.227384994,28.9144217 1.08271076,15.1085934 5.50776804,13.4519022 L5.50776804,27 C2.04739546,28.2967798 1.96432311,30.0545988 2.16836433,34.0342292 C2.49732875,40.4879067 8.11548216,43.5252918 18.8685934,45.5130465 L18.577106,48.3291467 Z" id="Fill-4" fill="#DDDDDD"></path>
                    <circle id="Oval-2" fill="#FFFFFF" cx="23.9200205" cy="20.4879579" r="20"></circle>
                    <path d="M26.9416857,50.7081332 L19.1145533,49.8289604 C17.8972462,49.6929634 17.0033513,48.4071733 17.1199463,46.9606593 C17.2337652,45.5100243 18.3330893,44.431664 19.530964,44.5855192 L27.3580963,45.464692 C28.5726274,45.600689 29.4706864,46.8864791 29.3540914,48.3329931 C29.2458247,49.6984582 28.28114,50.7204966 27.149891,50.7204966 C27.0832653,50.7204966 27.0138635,50.7163754 26.9416857,50.7081332 Z" id="Fill-5" fill="#FFFFFF" opacity="0.693446828"></path>
                    <path d="M19.9888769,46.903101 C19.9888769,48.0432782 19.0588931,48.9650358 17.9068236,48.9650358 C16.7589182,48.9650358 15.8261583,48.0432782 15.8261583,46.903101 C15.8261583,45.767045 16.7589182,44.8439136 17.9068236,44.8439136 C19.0588931,44.8439136 19.9888769,45.767045 19.9888769,46.903101" id="Fill-6" fill="#C7C7C7"></path>
                </g>
                <path d="M36.382038,28.5355506 C36.4727473,28.4907377 36.5587297,28.4683313 36.6398952,28.4683313 C36.8148814,28.4683313 36.9756246,28.5347841 37.12009,28.6656759 C37.2665901,28.7965677 37.3398402,28.9415555 37.3398402,29.1026532 C37.3398402,29.6987144 36.611409,30.673355 35.1545468,32.026575 C32.0983915,34.8659205 28.4725136,36.2855933 24.2809825,36.2855933 C21.8332097,36.2855933 19.5563537,35.7761221 17.4463451,34.7571796 C14.5468636,33.329452 12.3066326,31.2714299 10.719548,28.5770722 C9.23419963,26.0458258 8.49152542,23.3514681 8.49152542,20.4980265 C8.49152542,17.7029828 9.2057135,15.0609819 10.6320549,12.5720236 C12.3493618,9.57359419 14.8541069,7.38266655 18.1442554,6.00125446 C20.1972917,5.12729987 22.2421892,4.69032258 24.2809825,4.69032258 C25.6788378,4.69032258 27.1336653,4.90176321 28.6474999,5.32464446 C31.166488,6.02340539 33.3558509,7.2678845 35.2196579,9.0580818 C36.0783114,9.88773454 36.869819,10.8221007 37.5901112,11.8631941 C38.3104034,12.9042875 38.6705496,13.6433228 38.6705496,14.0803001 C38.6705496,14.4870716 38.4304522,14.6904573 37.9482226,14.6904573 C37.8034342,14.6904573 37.6628256,14.6366799 37.5265864,14.5291251 C35.2803324,9.48842716 30.271934,5.97992547 24.453934,5.97992547 C16.5377101,5.97992547 10.1203426,12.4753929 10.1203426,20.4879579 C10.1203426,28.500523 16.5377101,34.9959904 24.453934,34.9959904 C29.428867,34.9959904 33.8118319,32.4306279 36.382038,28.5355506 Z" id="Combined-Shape" stroke="#2F3B4E" stroke-width="2" fill="#2F3B4E"></path>
                <path d="M30.7093085,24.9692812 C30.7598202,24.9443271 30.8076998,24.93185 30.852897,24.93185 C30.9503385,24.93185 31.0398488,24.9688544 31.1202947,25.0417418 C31.2018737,25.1146293 31.2426632,25.1953662 31.2426632,25.2850738 C31.2426632,25.616992 30.8370344,26.1597232 30.0257768,26.9132674 C28.3239487,28.4943645 26.3048689,29.284913 23.9708037,29.284913 C22.607755,29.284913 21.3398817,29.0012126 20.1649178,28.4338118 C18.5503338,27.6387779 17.3028553,26.4927628 16.419083,24.9924026 C15.5919628,23.5828714 15.1784027,22.0825112 15.1784027,20.4935647 C15.1784027,18.9371372 15.5761003,17.4659319 16.3703623,16.079949 C17.3266492,14.4102656 18.7214231,13.1902417 20.553551,12.4209987 C21.6967897,11.9343348 22.8354963,11.6910028 23.9708037,11.6910028 C24.7492031,11.6910028 25.5593277,11.8087441 26.4023105,12.0442267 C27.8050157,12.4333335 29.0241682,13.126325 30.0620341,14.1232011 C30.5401776,14.5851955 30.9809307,15.1054998 31.3820273,15.6852354 C31.7831239,16.264971 31.9836723,16.6765047 31.9836723,16.9198367 C31.9836723,17.1463485 31.8499734,17.2596044 31.5814426,17.2596044 C31.5008168,17.2596044 31.4225185,17.2296583 31.3466533,17.1697661 C30.0958208,14.3628401 27.3068809,12.4091216 24.0671122,12.4091216 C19.658942,12.4091216 16.0854139,16.0261398 16.0854139,20.4879579 C16.0854139,24.949776 19.658942,28.5667942 24.0671122,28.5667942 C26.8374169,28.5667942 29.2780824,27.1382653 30.7093085,24.9692812 Z" id="Combined-Shape-Copy" stroke="#2F3B4E" stroke-width="3" fill="#2F3B4E"></path>
            </g>
        </g>
    </g>
</svg>